<svg width="59" height="59" viewBox="0 0 59 59" fill="none" xmlns="http://www.w3.org/2000/svg">
<path d="M25.2897 58.6354C27.1657 58.6354 28.6865 57.1924 28.6865 55.4125C28.6865 53.6325 27.1657 52.1895 25.2897 52.1895C23.4136 52.1895 21.8928 53.6325 21.8928 55.4125C21.8928 57.1924 23.4136 58.6354 25.2897 58.6354Z" fill="#EE24FF"/>
<path d="M31.7157 0.0951385C27.5248 -0.353393 23.3178 0.796033 20.0201 3.29055C16.7224 5.78507 14.6042 9.42035 14.1315 13.3967C13.1471 21.6769 17.7448 39.6577 26.1273 47.101C30.0742 32.8403 43.905 24.3816 45.7351 16.779C47.6906 8.65546 40.4428 1.02916 31.7157 0.0951385Z" fill="#EE24FF"/>
<path d="M30.079 18.0308C32.9432 18.0308 35.2652 15.8278 35.2652 13.1102C35.2652 10.3926 32.9432 8.18954 30.079 8.18954C27.2147 8.18954 24.8928 10.3926 24.8928 13.1102C24.8928 15.8278 27.2147 18.0308 30.079 18.0308Z" fill="white"/>
</svg>
